<svg xmlns="http://www.w3.org/2000/svg" viewBox="0 0 195.76 195.76"><defs><style>.cls-1,.cls-2{fill:#fff;}.cls-2{font-size:10.47px;font-family:OpenSans-Regular, OpenSans Regular;}</style></defs><g id="Layer_2" data-name="Layer 2"><g id="Layer_1-2" data-name="Layer 1"><path class="cls-1" d="M105.9,107.82v1.6c6.92,0,9.52.82,9.58,16,.06,11.94-2.77,15.28-14.76,15.33-13.84.06-19-8.9-19.1-42.76S86.26,55.09,100.35,55a39.78,39.78,0,0,1,5.4.32h0l.59.08c1.76.3,6.73,1.61,5.35,6.63a11.51,11.51,0,0,0-.56,1.52h0a10.63,10.63,0,0,0-.4,2.9,10.55,10.55,0,0,0,20.35,3.8,10.27,10.27,0,0,0,.73-3.89c0-.24,0-.47,0-.71a10.48,10.48,0,0,0-.28-1.78,10.17,10.17,0,0,0-1-2.52,10.56,10.56,0,0,0-5.05-4.58l-.91-.34c-6.22-2.26-13.74-3.09-24.22-3-26.7.12-45.4,19.28-45.29,44.64s19,44.36,45.69,44.24c13.22-.06,25-2.57,31.86-6.17-.11-25.36.38-26.84,8.16-26.88v-1.6Z"/><path class="cls-1" d="M98.32,195.76a97.88,97.88,0,1,1,97.44-98.31A98,98,0,0,1,98.32,195.76ZM97.45.66a97.23,97.23,0,1,0,97.66,96.79A97.33,97.33,0,0,0,97.45.66Z"/><text class="cls-2" transform="translate(26.71 73.82) rotate(-67.09)">C</text><text class="cls-2" transform="matrix(0.51, -0.86, 0.86, 0.51, 30.47, 65.37)">O</text><text class="cls-2" transform="translate(36.03 56.28) rotate(-51.19)">M</text><text class="cls-2" transform="translate(43.69 47.19) rotate(-42.29)">M</text><text class="cls-2" transform="matrix(0.83, -0.56, 0.56, 0.83, 52.65, 39.46)">U</text><text class="cls-2" transform="translate(61.29 33.91) rotate(-26.22)">N</text><text class="cls-2" transform="matrix(0.94, -0.34, 0.34, 0.94, 70.75, 29.6)">I</text><text class="cls-2" transform="translate(76.49 27.61) rotate(-14.01)">C</text><text class="cls-2" transform="matrix(0.99, -0.11, 0.11, 0.99, 85.95, 25.48)">A</text><text class="cls-2" transform="matrix(1, 0.01, -0.01, 1, 95.14, 24.58)">T</text><text class="cls-2" transform="translate(103.96 24.84) rotate(5.45)">I</text><text class="cls-2" transform="matrix(0.98, 0.2, -0.2, 0.98, 110.01, 25.49)">O</text><text class="cls-2" transform="translate(120.46 27.94) rotate(19.86)">N</text><text class="cls-2" transform="matrix(0.9, 0.44, -0.44, 0.9, 130.15, 31.77)"> </text><text class="cls-2" transform="translate(135.31 34.36) rotate(32.15)">D</text><text class="cls-2" transform="translate(144.05 40.19) rotate(39.36)">E</text><text class="cls-2" transform="translate(150.63 45.85) rotate(45.88)">S</text><text class="cls-2" transform="matrix(0.62, 0.78, -0.78, 0.62, 156.47, 52.19)">I</text><text class="cls-2" transform="matrix(0.54, 0.84, -0.84, 0.54, 160.2, 56.98)">G</text><text class="cls-2" transform="translate(165.52 65.77) rotate(65.33)">N</text><text class="cls-2" transform="translate(169.12 121.69) rotate(112.37)">E</text><text class="cls-2" transform="matrix(-0.52, 0.85, -0.85, -0.52, 164.35, 132.08)">X</text><text class="cls-2" transform="matrix(-0.65, 0.76, -0.76, -0.65, 157.66, 142.13)">P</text><text class="cls-2" transform="matrix(-0.76, 0.65, -0.65, -0.76, 149.76, 150.78)">O</text><text class="cls-2" transform="translate(139.2 158.99) rotate(149.13)">R</text><text class="cls-2" transform="translate(128.74 164.66) rotate(157.98)">T</text><text class="cls-2" transform="translate(117.97 168.47) rotate(165.54)"> </text><text class="cls-2" transform="matrix(-0.99, 0.1, -0.1, -0.99, 109.77, 170.34)">M</text><text class="cls-2" transform="translate(95.25 171.17) rotate(-175.68)">A</text><text class="cls-2" transform="translate(82.84 169.71) rotate(-166.52)">R</text><text class="cls-2" transform="matrix(-0.92, -0.38, 0.38, -0.92, 71.45, 166.49)">K</text><text class="cls-2" transform="matrix(-0.85, -0.52, 0.52, -0.85, 60.6, 161.44)">E</text><text class="cls-2" transform="matrix(-0.77, -0.64, 0.64, -0.77, 51.04, 155.05)">T</text><text class="cls-2" transform="translate(42.6 147.31) rotate(-132.39)">I</text><text class="cls-2" transform="matrix(-0.56, -0.83, 0.83, -0.56, 36.96, 140.72)">N</text><text class="cls-2" transform="translate(30.06 129.63) rotate(-114.41)">G</text><circle class="cls-1" cx="15.76" cy="98.25" r="2.69"/><circle class="cls-1" cx="178.34" cy="97.53" r="2.69"/></g></g></svg>