<svg xmlns="http://www.w3.org/2000/svg" viewBox="0 0 1016.16 190.41"><defs><style>.cls-1{fill:#6d2424;}</style></defs><g id="Layer_2" data-name="Layer 2"><g id="Layer_1-2" data-name="Layer 1"><path class="cls-1" d="M2.18,187.08c36-25,58.16-63.35,82.34-98.76C108.34,53.41,139.17,16.58,182,5.8c48.66-12.24,91.23,19,125.77,49.33C325.06,70.28,342,86,361.5,98.34c19.77,12.56,41.95,21,64.79,26,45.23,9.92,96.47,10.35,139.47-8.4,41.22-18,74-50.11,113.47-71.09a230,230,0,0,1,69.87-23.6c23.91-4,49.58-5,73.36.36,21.41,4.8,38.82,16,50.71,34.51,10,15.55,16.25,33.18,26.57,48.53,11,16.42,26.13,26.24,45.7,29.64,10.33,1.79,22,3.56,32.33,1.11,8.23-2,16.23-8.23,17.23-17.13.4-3.57.11-5.78-3.33-7.15a16,16,0,0,0-10.84-.16c-8.18,2.64-13.06,9.91-14.24,18.19-2.64,18.66,9.43,38.17,23.54,49.34a64.39,64.39,0,0,0,24.16,11.9c1.88.48,2.67-2.42.8-2.89-20-5.06-36.86-20.28-43.36-39.94-3.41-10.3-4.62-25.12,5.95-31.83,3.24-2,13.68-5.43,14.44.73.82,6.7-6.2,12.87-11.74,15-10.73,4.15-24.85,1.72-35.83-.38s-21.24-6.08-29.68-13.4c-13.35-11.59-20.71-28.38-28.49-43.87-7.68-15.29-16.21-30.57-30.27-40.92C840.17,21.14,820,16.8,800.54,15.54c-45.12-2.95-90.93,8.21-130.06,30.69-37.13,21.34-69,51.68-108.89,68.23-22.12,9.17-45.91,12.77-69.75,13.14a278,278,0,0,1-69.94-7.38,195.87,195.87,0,0,1-63.3-27.35C339.44,80,322.66,64,305.25,49,274.35,22.18,236.67-4.49,193.54.64,154.4,5.3,122.69,33.51,99.1,63.2,73.15,95.86,54.28,133.87,24.93,163.86A167.58,167.58,0,0,1,.67,184.49c-1.58,1.09-.08,3.69,1.51,2.59Z"/></g></g></svg>