<svg xmlns="http://www.w3.org/2000/svg" id="line" viewBox="0 0 1016.158 190.414"><g id="Layer_2" data-name="Layer 2"><g id="Layer_1-2" data-name="Layer 1"><path d="M2.183,187.077c35.95-24.945,58.161-63.347,82.333-98.761C108.343,53.41,139.175,16.583,182.02,5.8c48.657-12.245,91.232,19.033,125.767,49.33,17.268,15.15,34.25,30.854,53.709,43.212,19.776,12.56,41.958,20.962,64.792,25.97,45.228,9.921,96.47,10.346,139.477-8.4,41.215-17.964,73.97-50.118,113.47-71.1a230.114,230.114,0,0,1,69.869-23.6c23.908-4,49.573-4.981,73.359.358,21.411,4.807,38.817,15.96,50.709,34.511,9.972,15.555,16.251,33.183,26.566,48.534,11.033,16.418,26.13,26.24,45.7,29.639,10.329,1.794,22,3.563,32.333,1.108C986,133.413,994,127.137,995,118.241c.4-3.574.108-5.783-3.331-7.155a16.021,16.021,0,0,0-10.84-.156c-8.182,2.639-13.059,9.907-14.233,18.187-2.647,18.666,9.422,38.176,23.538,49.339a64.3,64.3,0,0,0,24.16,11.906c1.872.475,2.671-2.418.8-2.893-19.959-5.063-36.859-20.276-43.36-39.934-3.409-10.308-4.623-25.124,5.953-31.834,3.233-2.052,13.678-5.427,14.433.73.823,6.7-6.2,12.871-11.74,15.013-10.729,4.149-24.851,1.711-35.826-.385-10.874-2.076-21.241-6.074-29.677-13.4-13.358-11.6-20.712-28.386-28.492-43.867C878.7,58.5,870.17,43.217,856.114,32.875c-15.948-11.736-36.157-16.07-55.577-17.338-45.116-2.945-90.924,8.212-130.056,30.7C633.35,67.57,601.464,97.911,561.587,114.457c-22.116,9.176-45.906,12.774-69.744,13.146a278.457,278.457,0,0,1-69.939-7.38A195.82,195.82,0,0,1,358.6,92.87c-19.159-12.885-35.944-28.845-53.347-43.921-30.9-26.77-68.583-53.444-111.718-48.31C154.4,5.3,122.687,33.515,99.1,63.2,73.148,95.858,54.281,133.867,24.935,163.863A167.926,167.926,0,0,1,.668,184.487c-1.575,1.093-.077,3.694,1.515,2.59Z"/></g></g></svg>