<svg id="logo" xmlns="http://www.w3.org/2000/svg" viewBox="0 0 200.65 49.72"><defs><style>.cls-1{fill:#fff;}</style></defs><g id="Layer_2" data-name="Layer 2"><g id="Layer_1-2" data-name="Layer 1"><path class="cls-1" d="M51.18,19.93a3.68,3.68,0,0,1-1.42-2.78c0-.61-1.82-.21-3.79,2.88V30.37c0,2.78.25,4.81,2.07,5.32v.6H36.44v-.6c2-.61,2-2.74,2-5.32V18.57c0-1.78-.56-2.49-2.64-3.4v-.66L46,12.44v6.43c3.14-4.81,4.91-5.52,6.28-6.13a4.46,4.46,0,0,1,4.5.76,4.25,4.25,0,0,1-5.57,6.43Z"/><path class="cls-1" d="M66.86,24.14c.21,6.33,2.69,8.61,6.08,9.37,2.64.61,6.39-.66,7.5-4l.66.25c-.71,3.19-4,7-10.64,7s-11.6-5.67-11.6-12.06c0-7.9,5.72-12.25,12.31-12.25,6.38,0,10.64,3,10.64,11.7Zm8.21-.66c0-6.38-1.37-10.39-3.9-10.39-2.68,0-4.31,5.53-4.31,10.39Z"/><path class="cls-1" d="M99.17,36.75A12.47,12.47,0,0,1,93,35.38V44c0,2.79.3,4.61,2.08,5.07v.66H83.62v-.66c1.92-.56,2-2.48,2-5.07V18.21c0-1.77-.5-2.28-2.58-3v-.66l10-2.07v4c1.52-2.74,4.66-4,8.2-4,6.34,0,10.74,5,10.74,12C112,33.61,106,36.75,99.17,36.75ZM97.75,14.26c-3,0-4.41,2.68-4.71,5.88v9c.35,4.87,2.43,6.94,5.06,6.94,3.25,0,5.17-3.09,5.17-11C103.27,18.06,101.6,14.26,97.75,14.26Z"/><path class="cls-1" d="M148.88,36.75c-8.36,0-12.56-5.52-12.56-12.16s4.2-12.15,12.56-12.15,12.56,5.47,12.56,12.15S157.29,36.75,148.88,36.75Zm0-23.66c-3.19,0-3.7,2.33-3.7,11.5s.51,11.5,3.7,11.5,3.7-2.33,3.7-11.5S152.07,13.09,148.88,13.09Z"/><path class="cls-1" d="M190.49,36.29H179v-.6c1.92-.56,2-2.79,2-5.37v-10c0-2.69-1.32-4.26-3.8-4.26a4.22,4.22,0,0,0-3.65,3.09V30.42c0,2.78.26,4.76,2.08,5.27v.6H164.05v-.6c1.93-.56,2-2.69,2-5.27V18.51c0-1.77-.51-2.43-2.59-3.34v-.66l10.08-2.07V17.6a8.89,8.89,0,0,1,7.55-5.16c4,0,7.35,1.62,7.35,7.7V30.32c0,2.78.25,4.91,2.07,5.37Z"/><path class="cls-1" d="M20.9,22.39v.66c2.85,0,3.92.35,3.92,6.58,0,4.92-1.17,6.28-6.1,6.28-5.7,0-7.78-3.69-7.78-17.62S12.92.66,18.72.66A16.86,16.86,0,0,1,20.94.8h0l.24,0c.73.13,2.77.68,2.2,2.74a3.41,3.41,0,0,0-.24.63h0A4.28,4.28,0,0,0,23,5.39a4.34,4.34,0,0,0,6.51,3.74A4.4,4.4,0,0,0,31.34,7a4.31,4.31,0,0,0,.31-1.61c0-.09,0-.19,0-.29a4.45,4.45,0,0,0-.12-.73,4.23,4.23,0,0,0-.4-1,4.32,4.32,0,0,0-2.07-1.89l-.38-.15C26.12.35,23,0,18.72,0,7.73,0,0,7.85,0,18.29S7.73,36.57,18.72,36.57c5.44,0,10.27-1,13.12-2.48,0-10.43.2-11,3.41-11v-.66Z"/><path class="cls-1" d="M128.5,22.85l-5.12-3.09c-3.85-2.54-3.14-6.89.46-6.89a7,7,0,0,1,1.85.25,1.46,1.46,0,0,1,1.1,2h0a3.07,3.07,0,0,0-.2,1.1,3.18,3.18,0,1,0,5.2-2.46h0l-.18-.13a3.42,3.42,0,0,0-.62-.35h0l-.07,0a14.82,14.82,0,0,0-6-1.07l-1.09,0a15.79,15.79,0,0,0-2,.13h0c-4,.55-5.41,2.59-5.41,2.59-2.63,3.5-1.32,8.56,3.24,11.35l5.12,3.19c4.41,2.79,2.94,6.38-.36,6.38a8,8,0,0,1-7.64-6.23h-.66v5.42s2.48,1.47,8.3,1.47c5.42,0,7.3-2.48,7.3-2.48C134.63,30.49,133.36,25.94,128.5,22.85Z"/><circle class="cls-1" cx="197.46" cy="32.9" r="3.19"/></g></g></svg>