<svg id="woman" xmlns="http://www.w3.org/2000/svg" viewBox="0 0 907.82 830.22"><defs><style>.cls-1{fill:#6d2424;}</style></defs><g id="Layer_2" data-name="Layer 2"><g id="Layer_1-2" data-name="Layer 1">
<path class="cls-1" d="M328.36,26.2a74.37,74.37,0,0,0-13.94,29.4c-2.48,10.73-3,21.76-3.18,32.73-.22,11.88-.08,23.86-1.92,35.63a165.63,165.63,0,0,1-3.9,16.62c-1.34,5.12-2.41,10.46-1.59,15.76,1.35,8.76,8.09,14.71,14.15,20.54,3.11,3,6.19,6.1,8.3,9.9a26.76,26.76,0,0,1,3.09,12.93c0,9.23-2.82,18.2-4,27.31-1.1,8.79-.11,17.16,4.47,24.86,4,6.79,9.64,12.45,14.47,18.65,4.69,6,8.9,13.07,7.72,21-.75,5.1-3.11,10.15-1,15.25,1.76,4.25,5.66,7.25,8.14,11.07,4.73,7.31,6.72,15.95,8.26,24.41,3.1,17,4.91,35.8,19.66,47.21,16.27,12.57,38.1,11.72,56.9,6.31,10.87-3.12,21.4-7.48,31.81-11.89,10.9-4.62,21.66-9.57,32.32-14.74,20.89-10.14,41.44-21,61.88-32,8.63-4.64,17.24-9.6,24.53-16.22a52.11,52.11,0,0,0,16-51.68,49.87,49.87,0,0,0-2.12-6.43c-1-2.46-2.59-5.44-1.95-8.19.55-2.42,2.9-3.61,5-4.55s4.2-1.78,6.26-2.76c31.42-15.11,53.89-46.92,59.34-81.16a100.69,100.69,0,0,0,.87-25.66c-.48-4.91-1.11-10-3.22-14.51a20.15,20.15,0,0,0-9-9.26c-16.66-8.68-35.8,1.6-46.69,14.6-11.86,14.15-21.15,36.33-12.1,54.11,3.85,7.58,11,13.43,19.71,13.93,7.7.45,15.93-3.33,19.14-10.64,3.59-8.19-.32-18.71-9.75-20.22-8.85-1.41-13.9,6.76-15.27,14.35-.8,4.42-.61,8.92-1.12,13.36-.48,4.2-2.1,11.38-7.13,12.34-2.65.51-4.56-2.61-5.94-4.43a56.6,56.6,0,0,1-4.11-6.29,57.8,57.8,0,0,1-5.48-13.56,57.1,57.1,0,0,1-.22-28.36c.21-.85-.44-2-1.45-1.9-11,1.38-21.57-4.31-28.29-12.82a50,50,0,0,1-8-15.31,72.65,72.65,0,0,1-2.22-8.34c-.54-2.58-.73-5.29-1.5-7.81-1.66-5.37-6.31-6.29-11.29-6.82a61.39,61.39,0,0,1-16-4,76.84,76.84,0,0,1-27.2-18.83,114.14,114.14,0,0,1-19.31-28.73c-2.54-5.21-4.73-10.56-6.79-16C472.84,30.47,471,25.5,468,21.17c-6.65-9.71-18-12.21-28.73-15C426.87,3,414.21.42,401.39.06c-6.49-.18-13,.11-19.52.17a68.77,68.77,0,0,0-53.51,26c-1.19,1.49.92,3.62,2.13,2.12A67,67,0,0,1,358,7.77a62,62,0,0,1,18.13-4.33c6.38-.47,12.81-.18,19.2-.38,12.95-.39,25.79,1.79,38.33,4.81,5.92,1.43,11.93,2.87,17.69,4.85,5.33,1.83,10.15,4.6,13.53,9.22,3.19,4.36,5.14,9.48,7.05,14.5s4,10.22,6.39,15.18a120.25,120.25,0,0,0,18.32,28.31A82.14,82.14,0,0,0,522.44,99.7a67.21,67.21,0,0,0,14.84,5.13,69.48,69.48,0,0,0,7.59,1.14c2.8.29,5.88.74,7.17,3.59,1.06,2.38,1.15,5.23,1.65,7.77a76.36,76.36,0,0,0,2,8,56.23,56.23,0,0,0,7,14.94c5.76,8.51,14.68,15.14,25,16.6a28.71,28.71,0,0,0,7.58.06l-1.44-1.9a60.55,60.55,0,0,0,11.31,52.06c2.72,3.41,6.12,5.91,10.42,3.34,3.58-2.14,5.52-6.37,6.4-10.29,1.84-8.16-.41-18,5-25.12a9,9,0,0,1,11-2.93c4.35,1.91,6.49,6.42,6.14,11-.67,8.94-9.8,13.83-18,13.11-8.83-.77-15.43-8.07-18.16-16.09-3.45-10.15-1-21.2,3.26-30.71,6.9-15.47,20.55-31.3,38.53-32.78,8.88-.73,18.86,2.41,22.6,11.19,1.89,4.44,2.39,9.48,2.77,14.24a96.65,96.65,0,0,1,.19,12.39c-1.6,33.63-20.4,66.21-48.74,84.39a97.76,97.76,0,0,1-11.35,6.25c-3.52,1.64-8.07,2.74-10.43,6.08-2.87,4.07-.58,8.83,1,12.9a47.23,47.23,0,0,1,3.14,13.36,49.92,49.92,0,0,1-5.4,27.29c-4.56,8.67-11.83,15.39-19.86,20.82-8.21,5.55-17.13,10-25.87,14.64-10,5.33-20,10.64-30.15,15.82-20.06,10.28-40.39,20.09-61.31,28.53-19.08,7.7-40.25,15.66-61,10.28-8.63-2.24-16.8-6.72-22.44-13.75-5.33-6.65-7.86-15-9.57-23.21-3.4-16.35-4.1-33.79-15.63-46.95-1.63-1.85-3.41-3.76-4.13-6.18-.81-2.72-.1-5.57.53-8.24,1-4.16,1.6-8.11.76-12.35-1.38-7-5.87-12.84-10.27-18.2-4.9-6-10.37-11.71-13.75-18.74-3.84-8-3.11-16.78-1.61-25.24,1.54-8.63,4-17.47,2.94-26.3-1-8.5-5.65-14.79-11.63-20.59s-13.1-11.67-13.89-20.61c-.48-5.43,1.05-10.82,2.48-16a122.23,122.23,0,0,0,3.5-16.39c2.92-21.81-.28-44.18,4.73-65.75a70.82,70.82,0,0,1,13.17-28.07C331.67,26.82,329.56,24.68,328.36,26.2Z"/>
<path class="cls-1" d="M354.26,306.54c2.13,4.2,4.89,9,9,11.62a18.43,18.43,0,0,0,7.32,2.28,20.47,20.47,0,0,0,7.8-.2c2.6-.61,5.05-1.46,7.77-1.44a25.94,25.94,0,0,1,8,1.52c5,1.68,9.7,4.3,14.77,5.9a22.25,22.25,0,0,0,7.44,1.27c1.92-.07,5-.63,5.76-2.7.92-2.47-1.95-4.18-3.8-5a62.26,62.26,0,0,0-7.31-2.36,86.68,86.68,0,0,1-15.05-6.32c-4.56-2.44-9.13-5.19-14.29-6.19a24.34,24.34,0,0,0-8.72.12,9.3,9.3,0,0,1-4.54-.1,32.47,32.47,0,0,1-3.56-1.85c-2.33-1.17-5.51-2.79-8.18-2.11-2.22.56-3.68,3.13-2.42,5.2a1.5,1.5,0,0,0,2.59-1.51c-.42-.69,1-.84,1.34-.82a11.37,11.37,0,0,1,3.25,1c2,.8,3.79,2.08,5.8,2.87a12.23,12.23,0,0,0,6.52.24,19.82,19.82,0,0,1,7.12-.11c4.54.88,8.57,3.17,12.58,5.34A95.55,95.55,0,0,0,406,318.89c2.18.8,4.38,1.5,6.61,2.13,2,.58,4.32,1.1,6.06,2.38.6.44.6.36-.09.64a6,6,0,0,1-1.4.38,11,11,0,0,1-3.38-.09,32.7,32.7,0,0,1-6.43-1.81c-8.49-3.2-16.77-8.38-26.19-6.12-2.59.62-5,1.48-7.73,1.35a20.91,20.91,0,0,1-7.54-1.56,13.19,13.19,0,0,1-5-4.48,47.63,47.63,0,0,1-4.08-6.69c-.87-1.72-3.46-.2-2.59,1.52Z"/>
<path class="cls-1" d="M412.51,327.84c-3.21,6.16-7.29,12-14.3,14-6.83,1.94-15.32,1.64-21.72-1.58a18.48,18.48,0,0,1-7.26-6.38,15.06,15.06,0,0,1-2-4.39c-.31-1.18-.82-3.13-.22-4.3.72-1.4,3.42.51,4.3,1a37,37,0,0,0,5,2.58A24.26,24.26,0,0,0,387,330.4c4.34-.32,8.26-2.16,12.5-3a18.75,18.75,0,0,1,12.15,1.91c1.71.9,3.23-1.69,1.52-2.59a22,22,0,0,0-11.91-2.56c-4.42.35-8.42,2.36-12.76,3a21.4,21.4,0,0,1-12.12-1.7c-2.89-1.33-7.67-5.71-10.91-3.07-2.75,2.24-1.47,7.18-.34,9.93a20.41,20.41,0,0,0,6.71,8.48c6.59,4.95,15.64,5.76,23.56,4.61a22.48,22.48,0,0,0,12.2-5.52,37.64,37.64,0,0,0,7.54-10.6c.9-1.71-1.69-3.23-2.59-1.52Z"/>
<path class="cls-1" d="M387.63,249.82l9.69,3.76c2.59,1,5.24,1.94,7.74,3.18,3.78,1.9,8.4,5.19,7.29,10.08s-6.85,7.83-11.25,9.42a44.31,44.31,0,0,1-17.68,2.51,30.84,30.84,0,0,1-8.94-1.54c-.58-.22-.47-.13-.13-.69a9.2,9.2,0,0,1,1.06-1.42,11.95,11.95,0,0,1,10.14-3.92c.81.1,2.46.33,2.54,1.41s-1.2,2-1.91,2.43c-2.42,1.58-5.71,2.23-8.51,2.68a48.75,48.75,0,0,1-9.11.47c-3.06-.08-6.11-.37-9.14-.72a37.56,37.56,0,0,1-9.39-2,15,15,0,0,1-6.29-4.42,11.51,11.51,0,0,1-2.24-8.19c.42-6.19,3.22-12.16,5.5-17.84a133.77,133.77,0,0,0,9.33-37.38,53.73,53.73,0,0,0-1.2-18.7,55.94,55.94,0,0,0-6.6-15.07c-5.86-9.53-13.8-17.61-21.84-25.31a55.45,55.45,0,0,0-6.94-5.86c-2.13-1.45-4.79-3.13-7.48-2.81-4.88.58-6.9,6.68-7.41,10.83a7.72,7.72,0,0,0,2.8,7.23,13.8,13.8,0,0,0,7.63,2.62,65.51,65.51,0,0,1,8.73,1,33.78,33.78,0,0,1,14.86,7.64c1.44,1.28,3.57-.84,2.12-2.12a37,37,0,0,0-15.78-8.32A56.45,56.45,0,0,0,316,157.6c-2.72-.19-6.08-.77-7.61-3.34-1.36-2.3-.2-5.83.84-8.08s2.57-4,5.1-3.09c2.88,1,5.48,3.19,7.72,5.19s4.5,4.23,6.69,6.4c8.39,8.33,16.62,17.45,21.3,28.46a45.78,45.78,0,0,1,3.65,17.77,96.31,96.31,0,0,1-2.57,20.84,135.33,135.33,0,0,1-5.95,19.89c-2.38,6.15-5.34,12.25-6.35,18.82a17.15,17.15,0,0,0,.69,9.15A14.78,14.78,0,0,0,344.7,276c5.22,3.76,12.07,4.31,18.27,4.88,6.44.59,13.08.68,19.36-1.07,2.61-.73,5.48-1.67,7.32-3.79s2-4.94-.35-6.61c-2.13-1.51-5.29-1.42-7.74-1a15.12,15.12,0,0,0-7.11,3.47c-1.7,1.46-4.53,4.47-2.94,6.83a4.73,4.73,0,0,0,2.89,1.64,45,45,0,0,0,5.14,1,47.23,47.23,0,0,0,18.6-1.05c5.43-1.43,11.33-3.77,14.9-8.33a10.18,10.18,0,0,0-.5-13.61c-3.7-4-9.28-5.7-14.2-7.6l-9.91-3.85c-1.8-.7-2.58,2.2-.8,2.89Z"/>
<path class="cls-1" d="M350.09,172.88c-1.72-2.38-4.61-3.36-7.32-4.19a30.07,30.07,0,0,0-8.86-1.52c-2.68,0-5.48.73-7.31,2.81s-2.41,5-2.63,7.68c-.44,5.64,1.6,11.92,7.42,13.91,2.72.92,5.69.65,8.47.22a13.66,13.66,0,0,0,7.51-3.25,14.64,14.64,0,0,0,4-7.36c.66-2.84,1-6.32-.82-8.82-1.11-1.56-3.72-.06-2.59,1.51s1,4,.63,6a13.17,13.17,0,0,1-2.23,5.3c-2.59,3.5-7.72,4.29-11.82,4-5-.36-7.49-4.61-7.64-9.24a14.74,14.74,0,0,1,1-6.51,5.64,5.64,0,0,1,5-3.2,23.71,23.71,0,0,1,7.49.94,35.44,35.44,0,0,1,3.9,1.26,6.78,6.78,0,0,1,3.16,2c1.12,1.55,3.72.06,2.59-1.51Z"/>
<path class="cls-1" d="M345,169.68a6.17,6.17,0,0,0-6.55,2.09,10.62,10.62,0,0,0-2.23,6.72,13.56,13.56,0,0,0,6.08,11.32c1.62,1.06,3.12-1.53,1.51-2.59a10.43,10.43,0,0,1-4.57-8c-.16-2.7,1.21-7.9,5-6.67,1.84.61,2.63-2.29.8-2.89Z"/>
<path class="cls-1" d="M414.58,164.39a14,14,0,0,0-4.74,4.86c-1.27,2.11-1.81,4.54-3,6.66-2.26,4-8.2,4.06-10.26,8.24a3.47,3.47,0,0,0,2.09,5,5.67,5.67,0,0,0,3.07-.37c1.42-.47,2.83-1,4.29-1.32,5.64-1.39,11.09.44,16.69,1.16a83,83,0,0,0,17.19.47c5.07-.41,10.25-1.5,14.39-4.62,3.36-2.54,6.86-7.19,5.3-11.65-.79-2.24-2.73-3.5-4.76-4.49a60.85,60.85,0,0,0-24.65-6.19,58.16,58.16,0,0,0-8.85.31c-2.48.27-5.71.27-7.25,2.58-1.07,1.61,1.53,3.11,2.6,1.51.43-.65,1.72-.68,2.42-.79,1.18-.19,2.37-.33,3.56-.43a60.29,60.29,0,0,1,6.85-.21,58.83,58.83,0,0,1,13.39,1.95c4.11,1.09,8.65,2.49,12.24,4.85,3.93,2.6.53,7.54-2.08,9.72-3.34,2.8-7.77,3.92-12,4.35a79.11,79.11,0,0,1-14.76,0q-3.63-.31-7.22-1a66.72,66.72,0,0,0-7.16-1.16,21.81,21.81,0,0,0-7.14.78c-1.15.3-2.27.67-3.39,1.05-.51.18-2.06,1-2.24.17s1.44-1.88,2-2.24c.87-.58,1.8-1.06,2.72-1.55a14.53,14.53,0,0,0,4.89-3.71c1.47-1.92,2-4.36,3-6.49a11.81,11.81,0,0,1,4.31-5,1.5,1.5,0,0,0-1.51-2.59Z"/>
<path class="cls-1" d="M403,178.11a6,6,0,0,1-3.77,2.9l1.85,1.05a22.59,22.59,0,0,1,12.36-26.88c5.73-2.58,11.7-2,17.74-1.07,3.2.5,6.38,1,9.56,1.66a42.27,42.27,0,0,1,7.9,2.12,15.1,15.1,0,0,1,7,5.49,35.16,35.16,0,0,1,2.34,4c.69,1.38,1.12,2.89.12,4.22-1.16,1.55,1.44,3,2.59,1.52,2.07-2.76.57-6.09-.91-8.7a21.12,21.12,0,0,0-6-7.11c-5.23-3.73-12.26-4.47-18.42-5.51-6.86-1.17-14-2.53-20.78-.26a25.3,25.3,0,0,0-16.44,31.34,1.52,1.52,0,0,0,1.85,1c2.25-.81,4.5-2,5.56-4.28.81-1.73-1.77-3.26-2.59-1.51Z"/>
<path class="cls-1" d="M380.15,156.41c-2.16.39-3.58-1.91-4.25-3.6a30.38,30.38,0,0,1-1.8-6.34,10.11,10.11,0,0,1,4.35-10.53c3.62-2.46,8.11-3.26,12.31-4.18q7-1.55,14.09-2.75a261.13,261.13,0,0,1,28.29-3.38c9-.53,18.05-.37,26.84,1.63,8.44,1.92,18.13,5.47,22.47,13.55l1.69-2.2c-7.15-2.66-14.73-3.76-22.3-4.47a178.32,178.32,0,0,0-21.55-.92,83.65,83.65,0,0,0-21.39,3.11,75.87,75.87,0,0,0-18.62,8.83c-6.61,4.12-13.07,8.67-20.36,11.54-1.77.7-1,3.61.8,2.9,12.78-5,23-14.88,36-19.43,13.4-4.7,27.9-4.46,41.87-3.31,8.38.69,16.79,1.69,24.71,4.64,1.3.49,2.27-1.14,1.7-2.2-4.22-7.86-13-11.87-21.19-14.16-9.67-2.69-19.83-3.09-29.79-2.56a263.94,263.94,0,0,0-31.21,3.75q-7.89,1.36-15.7,3.17c-4.48,1-9.09,2.39-12.48,5.68-3.91,3.81-4.33,9-3,14.06,1.14,4.53,3.37,11.12,9.31,10.07,1.9-.34,1.1-3.23-.79-2.9Z"/>
<path class="cls-1" d="M431.21,163.21a10.85,10.85,0,0,0-7.13,14.44,17.36,17.36,0,0,0,5.25,7.28,16.63,16.63,0,0,0,8.84,3.26,28.64,28.64,0,0,0,9.84-.83,12.55,12.55,0,0,0,7-4.32,12.41,12.41,0,0,0,2.25-8.23,8.2,8.2,0,0,0-4.27-7.18,47.45,47.45,0,0,0-21.84-5.76c-1.93-.06-1.93,2.94,0,3a47,47,0,0,1,16.18,3.39c2,.81,5.19,1.84,6.31,3.88s.8,4.77.17,6.77c-1.58,5-7.14,6-11.71,6.32-5.44.34-10.57-1-13.71-5.78-1.53-2.32-2.6-5-1.87-7.83A7.77,7.77,0,0,1,432,166.1a1.5,1.5,0,0,0-.8-2.89Z"/>
<path class="cls-1" d="M153.16,554.17c6.81-12.36,13-25.29,14.91-39.4s.39-28.58.75-42.87c.33-13.34,2.93-26.24,10.24-37.58,6.28-9.77,15.15-17.67,24.93-23.83,20.23-12.72,45.64-19.77,69.56-18.41,12.5.72,25,4.22,35.16,11.73,4.94,3.64,9.47,9.22,5.63,15.32-3.09,4.91-9,7.75-14.29,9.61A172.42,172.42,0,0,1,215,436.23a165.4,165.4,0,0,1-20.59-4.72c-6.09-1.82-12.46-4.79-13.76-11.69-1.13-6,1.84-12.27,4.91-17.26,3.77-6.14,8.76-11.45,13.41-16.92l60.86-71.56c9.76-11.47,19.54-22.94,30.1-33.69,9.05-9.21,20.28-21.7,34.6-17.33,6.75,2.06,13.26,5.71,19.38,9.19a165.55,165.55,0,0,1,17.27,11.33c5.3,4,11.07,8.15,14.67,13.81,1.6,2.53,3,5.59,2.52,8.65a7.44,7.44,0,0,1-5.54,6c-5.45,1.45-11.44-1.34-16.13-3.86a163.46,163.46,0,0,1-18.09-11.32,152,152,0,0,1-16.34-13.54c-4.12-3.94-9-9.92-5.62-15.83,4.25-7.36,13.07,1.26,17.09,4.48A153.62,153.62,0,0,1,349,285.68c9.6,10,17.31,22.24,19.47,36.16,2.25,14.57-3.77,27.4-10.71,39.8-6.32,11.29-12.69,22.55-19.25,33.7-13.08,22.18-27,44-43.35,63.91S260.18,497,238.49,510.8C215.27,525.56,189.35,536,168,553.71c-19.75,16.42-34.71,37.77-47.18,60-6.3,11.26-12,22.84-17.6,34.48q-2.12,4.43-4.21,8.87c-1.38,2.93-2.94,5.91-3.41,9.15-1,6.58,3.83,10.1,8.31,13.91,9.07,7.71,18.51,19.48,13.08,32-5.74,13.28-23.46,8.36-34.21,5.45a129.25,129.25,0,0,1-62.19-38.39c-7.79-8.71-15.35-18.79-17.27-30.62-.85-5.25-.32-11,3-15.3,3.66-4.78,9.62-6.61,15.47-6.21,13,.88,21.85,11.86,29.39,21.28,1.2,1.51,3.31-.63,2.12-2.12-8-10-17.19-20.83-30.84-22.11-5.82-.55-11.92.93-16.31,4.93a19.82,19.82,0,0,0-6.16,14c-.51,12,6.25,23.11,13.41,32.2a130.12,130.12,0,0,0,28.75,26.77,132.27,132.27,0,0,0,35,17,116.71,116.71,0,0,0,19.19,4.38c6.4.86,13.4.7,18.61-3.62,9.58-7.94,7.41-22.42.93-31.47-4-5.62-9.38-9.46-14.31-14.15-3.22-3.06-3.7-6.54-2.21-10.65,1.25-3.48,3.06-6.8,4.64-10.13,11.91-25.07,24.4-50.26,41.6-72.19a161.72,161.72,0,0,1,29.67-29.59c11.92-9,25.08-16.09,38.17-23.18s25.88-14.14,37.79-22.87a234.81,234.81,0,0,0,30.22-26.57c19-19.74,34.95-42.25,49.4-65.47C338.21,401.91,345.15,390,352,378c3.47-6.11,7-12.2,10.32-18.36,3.54-6.5,6.85-13.28,8.5-20.53,3.16-13.94-.64-28.4-7.93-40.43-7.59-12.52-18.74-22.37-30.19-31.27-4.43-3.44-10.66-8.41-16.22-4.16-4.27,3.26-4.78,9.31-2.72,13.95,2.74,6.16,8.91,10.81,13.95,15a165.46,165.46,0,0,0,17.9,13c5.67,3.57,11.68,7.43,18.19,9.25,4.86,1.37,10.77,1.62,14.62-2.21,4.24-4.22,3.42-10.31.74-15.13-3.32-6-8.9-10.29-14.22-14.41a168,168,0,0,0-18.47-12.43,120.33,120.33,0,0,0-19.62-9.59,23.82,23.82,0,0,0-19.07,1c-6.24,3.06-11.36,8-16.26,12.86-11.57,11.38-22.16,23.72-32.67,36.07q-16.31,19.15-32.6,38.33l-32.67,38.41c-4.62,5.43-9.35,10.8-12.6,17.21-2.6,5.14-4.53,11.2-3,17,1.59,6,6.62,9.66,12.21,11.74a124.9,124.9,0,0,0,21.56,5.43,176.36,176.36,0,0,0,45.65,2.18,171.15,171.15,0,0,0,44.27-9.52c9.24-3.37,22.6-12.59,15.09-23.84-3.5-5.25-9.82-9-15.38-11.65A68.07,68.07,0,0,0,283,390.13c-13.08-2.18-26.53-1.2-39.45,1.53-23.82,5-48.17,16.45-63.41,36a67.92,67.92,0,0,0-13.8,35.8c-1.49,15.53.71,31.15-.7,46.68-1.39,15.33-7.68,29.16-15,42.48-.93,1.69,1.66,3.21,2.59,1.52Z"/>
<path class="cls-1" d="M414.7,377.73c-2.5,2.53-5.82,4.8-9.5,4.88a6.41,6.41,0,0,1-6.35-4.12c-1-2.55-.31-5.19,2.46-6.09a23.65,23.65,0,0,1,5.75-.72c2.14-.14,4.28-.26,6.42-.38,17.2-.95,34.62-1.43,51.38-5.79a116.75,116.75,0,0,0,36.72-17,144.7,144.7,0,0,0,29.67-27.59,173.78,173.78,0,0,0,21.89-34.45c6.69-13.86,12.2-28.86,12.94-44.37a56.06,56.06,0,0,0-3.52-23.2c-2.5-6.34-6.5-12.49-12.56-15.93a18,18,0,0,0-17.73-.23c-5.85,3.4-7.89,10.32-5.95,16.63,2.16,7,8.21,11.53,14.86,14a52.94,52.94,0,0,0,23.05,2.78c14.71-1.38,28.37-8.83,36.79-21.08a45.88,45.88,0,0,0,4.72-8.89c.71-1.79-2.19-2.57-2.9-.79C597.65,218.32,586,228,572.66,231.6a52.09,52.09,0,0,1-23.33.86c-6.73-1.28-14.27-3.88-18.21-9.89-3.4-5.17-3.78-12.75,1.72-16.65,4.95-3.51,11.66-3,16.6.2,5.79,3.73,9.3,10.26,11.33,16.66a57.26,57.26,0,0,1,2,23c-1.48,14.82-7.15,29.15-13.85,42.34a168.18,168.18,0,0,1-22,33.23,139.06,139.06,0,0,1-29.51,26.28,113.62,113.62,0,0,1-36.85,15.8c-16.54,3.77-33.59,4-50.45,5-3.61.21-8-.08-11.28,1.71a6.79,6.79,0,0,0-3.45,6.67,10,10,0,0,0,3.71,6.85,10.36,10.36,0,0,0,8.95,1.49,19.27,19.27,0,0,0,8.74-5.36c1.36-1.38-.76-3.5-2.12-2.12Z"/>
<path class="cls-1" d="M152.33,550.44c-10.49,14.75-21,29.49-32.38,43.61-11.16,13.89-23.1,27.22-36.41,39.09a207,207,0,0,1-21,16.54q-5.55,3.8-11.35,7.18a19.16,19.16,0,0,0-5.13,3.8,11.24,11.24,0,0,0-2.54,5.71c-.65,4.47,1,8.75,3.41,12.46A47.76,47.76,0,0,0,55.36,689a20.23,20.23,0,0,0,10.89,5.3,14.79,14.79,0,0,0,10-2.51,10.59,10.59,0,0,0,4.73-9.11c-.19-4.5-2.78-8.76-5.06-12.52a78.16,78.16,0,0,0-17.28-20c-1.68-1.37-3.42-2.68-5.2-3.92-1.59-1.11-3.09,1.49-1.51,2.59a75.14,75.14,0,0,1,17.9,17.55,70.82,70.82,0,0,1,6.5,10.75c1.64,3.41,2.64,7.54-.09,10.68a11.33,11.33,0,0,1-8.36,3.57c-3.82,0-7.39-2-10.21-4.38a44.56,44.56,0,0,1-8-9.46c-2.26-3.47-4.08-7.65-2.92-11.84s5.59-5.93,9-8c3.58-2.18,7.09-4.49,10.52-6.9A215.32,215.32,0,0,0,86,635a318.65,318.65,0,0,0,34.54-36.87C131.29,584.83,141.36,571,151.31,557c1.2-1.7,2.41-3.39,3.61-5.08s-1.47-3.08-2.59-1.52Z"/>
<path class="cls-1" d="M663.66,324.1c-14,11.17-19.54,28.9-20.38,46.24a125.76,125.76,0,0,0,1.81,26.91,129.29,129.29,0,0,0,8.09,29.09c3.93,9.25,9.53,17.87,17.25,24.41C677.57,456.81,686,461,694.85,464c19.5,6.63,40.32,8.43,60.15,13.83a299.56,299.56,0,0,1,90.17,41.64c9.35,6.39,18.54,13.2,26.57,21.22,30,29.89,34.43,74.76,32.55,115A421.53,421.53,0,0,1,874.2,793.24q-3.26,8.1-6.87,16c-.79,1.75,1.79,3.28,2.59,1.52A426.35,426.35,0,0,0,905.75,677c3.91-39.87,4.3-84.81-17.39-120.14-11.36-18.51-29-31.8-46.93-43.51a303.54,303.54,0,0,0-89.7-39.51c-10-2.58-20.21-4.43-30.38-6.4-19.26-3.72-39.93-8.5-53.73-23.54-13.56-14.78-18.81-36.55-20.81-56-1.81-17.7-.48-37.38,10.1-52.35a45.58,45.58,0,0,1,8.88-9.31c1.5-1.21-.63-3.32-2.13-2.12Z"/>
<path class="cls-1" d="M785.88,700.61c-6.77,13.36-11.69,27.53-16.51,41.67s-9.51,28.13-16.1,41.43a127.72,127.72,0,0,1-13.07,21.23,1.52,1.52,0,0,0,.53,2.06,1.55,1.55,0,0,0,2.06-.54c9-11.75,15.44-25.19,20.78-39s9.74-28.17,14.93-42.15a220.14,220.14,0,0,1,10-23.22c.87-1.72-1.72-3.24-2.59-1.52Z"/>
<path class="cls-1" d="M462.4,392.59a355,355,0,0,1-5.48,60.17,359.54,359.54,0,0,1-15.56,58.32q-5.76,16-13.06,31.45c-.82,1.74,1.76,3.26,2.59,1.52a359,359,0,0,0,21.31-57.13A360.18,360.18,0,0,0,463.54,427q1.77-17.14,1.86-34.41a1.5,1.5,0,0,0-3,0Z"/>
<path class="cls-1" d="M738,526.62c-9.63-1.76-18.83,1.74-27.15,6.33-4.35,2.4-8.51,5.11-12.75,7.69s-8.57,5-13,7.21a177.82,177.82,0,0,1-90.78,18.43c-1.93-.12-1.92,2.88,0,3a181.6,181.6,0,0,0,86.77-16.19c9-4.13,17.39-9.23,25.85-14.37,9-5.48,19.35-11.2,30.27-9.21,1.89.35,2.7-2.54.8-2.89Z"/>
<path class="cls-1" d="M459.89,424c-22.64,23.78-54.53,35.3-86,41.7-18,3.65-36.18,5.85-54.31,8.46-8.56,1.23-17.21,2.46-25.2,5.92a69,69,0,0,0-19.42,13.28c-21.8,20.4-35.67,48.14-43.42,76.67-8.36,30.77-9.91,62.81-8.57,94.53,1.57,37.31,6.77,74.37,8.18,111.7q.26,6.81.33,13.63a1.5,1.5,0,0,0,3,0c-.4-37.13-5.38-74-7.74-111-2.08-32.43-2-65.17,5-97.05,6.36-29,18.4-57.35,38.62-79.51a89.12,89.12,0,0,1,17.73-15.51c7.21-4.58,15.16-7,23.52-8.43,17.85-3.09,35.9-4.86,53.74-8,31.55-5.6,63.64-15.22,88.43-36.41A111,111,0,0,0,462,426.1c1.33-1.4-.79-3.53-2.13-2.13Z"/>
<path class="cls-1" d="M327,686.67c-.61-14.72-7.51-28.06-15.43-40.14-2.3-3.5-4.7-6.93-7.11-10.35-1.1-1.57-3.71-.07-2.59,1.51,10.28,14.6,21.37,30.5,22.13,49,.08,1.92,3.08,1.93,3,0Z"/>
<path class="cls-1" d="M318.58,656.56a51.7,51.7,0,0,0-2.65-38.8c-.85-1.73-3.44-.21-2.59,1.52a48.65,48.65,0,0,1,2.35,36.49c-.61,1.83,2.29,2.62,2.89.79Z"/>
<path class="cls-1" d="M134.72,828.35a611.05,611.05,0,0,1-14-77.69c-1.49-13.19-2.57-26.42-3.34-39.67-.8-13.66-1.26-27.35-2.78-41a248.64,248.64,0,0,0-8-38.85c-3.56-12.83-7.36-25.71-8.65-39-.63-6.5-.87-13-1.56-19.52A166.91,166.91,0,0,0,92.8,553c-3-13.15-7.13-26-10.61-39a110.63,110.63,0,0,1-3.77-20c-.51-6.41-.43-13.28,1.75-19.39,1.91-5.37,6.41-10.59,12.51-10.78,3.36-.1,6.71,1.34,9.68,2.78a48.9,48.9,0,0,1,7.49,4.47,49.54,49.54,0,0,1,6.72,6,1.52,1.52,0,0,0,2.56-1.06c.79-6.06,1.63-12.58,5.11-17.77,2.87-4.29,8-7.81,13.4-6.75,4.41.88,7.53,4.38,10.06,7.85,2.72,3.72,5.08,7.7,8.22,11.1a1.51,1.51,0,0,0,2.51-.67c1-5,6.19-8.82,11.31-7.77,2.49.51,5.2,1.79,7-.83a13.65,13.65,0,0,0,1.31-3.19,30.34,30.34,0,0,1,1.95-4.4c2.89-5.33,7.52-9.73,13.61-10.94,5.65-1.13,10.95,1.29,14.42,5.74,3.27,4.2,5,9.49,5.9,14.66a69.54,69.54,0,0,1,.5,20.77c-.78,6.23-2.19,13.06-5.66,18.4-3.06,4.7-9.47,8.63-15,5.71s-6.3-10.34-6.9-15.78a175.93,175.93,0,0,1-.94-24.4c.06-1.93-2.94-1.93-3,0a175.34,175.34,0,0,0,1,24.78c.63,5.63,1.52,12.18,5.93,16.25s11.37,3.79,16.31.45c5.52-3.73,8.11-10.3,9.68-16.52a72.64,72.64,0,0,0,2-23.27c-.51-6.47-1.74-13-4.76-18.81-2.61-5-6.83-9.4-12.47-10.79-6.34-1.57-13.05.85-17.74,5.18a27.94,27.94,0,0,0-6.2,8.7c-.76,1.64-1.14,3.61-2,5.17s-2,.77-3.27.42a13.15,13.15,0,0,0-2.15-.41A13,13,0,0,0,155.53,469l2.51-.67c-6.48-7-10.87-19.79-22.14-20-5.75-.11-10.93,3.59-14.08,8.18-3.92,5.69-4.81,12.84-5.69,19.52l2.56-1.06a50.78,50.78,0,0,0-14.53-10.78c-5.19-2.55-11-4.58-16.59-2.19-11.88,5.06-13,20.57-12.18,31.67,1,13.82,5.67,27,9.42,40.24,3.82,13.48,7.55,27.32,8.82,41.3.62,6.74.84,13.53,1.68,20.25a167.07,167.07,0,0,0,3.86,19.84c3.31,13.21,7.6,26.18,10.14,39.58,2.68,14,3.56,28.36,4.32,42.62.74,14.07,1.57,28.12,2.92,42.15A614.21,614.21,0,0,0,129.4,819q1.17,5.07,2.42,10.13c.47,1.87,3.36,1.08,2.9-.8Z"/>
<path class="cls-1" d="M90.37,490.05c11,9.11,18.61,22.49,31.75,28.9,3.93,1.92,8.5,3,12.58.93,1.72-.88.21-3.47-1.51-2.59C129.9,519,126,517.6,123,516a42.39,42.39,0,0,1-8.14-5.58c-5.14-4.42-9.49-9.65-14.1-14.6a89.15,89.15,0,0,0-8.22-7.92c-1.47-1.22-3.61.89-2.12,2.13Z"/>
<path class="cls-1" d="M121.62,484c6.73,16.07,13.51,32.33,23.59,46.64,2.25,3.2,4.65,7,8.26,8.76,3.4,1.7,7.61,1.43,10.08-1.68s3.38-7.48,3.74-11.32a44.39,44.39,0,0,0-.87-12.59c-1.94-10-6.29-19.54-6.24-29.86a1.5,1.5,0,0,0-3,0c0,8.47,2.74,16.52,4.92,24.61,2,7.51,3.55,15.74,1,23.32-.54,1.63-1.25,3.56-2.62,4.69a5,5,0,0,1-4.82.53c-3.47-1.19-5.76-4.95-7.77-7.79a154.48,154.48,0,0,1-12.23-20.92c-4.08-8.24-7.64-16.71-11.18-25.19a1.57,1.57,0,0,0-1.85-1.05,1.51,1.51,0,0,0-1,1.85Z"/>
<path class="cls-1" d="M162.68,534.69c0,4.44,1,9.23,4.34,12.43a10.29,10.29,0,0,0,11.55,2.27c4-1.82,7.31-5.28,9.86-8.76a39.85,39.85,0,0,0,5.86-12.11,66.49,66.49,0,0,0,2.43-17c.06-1.93-2.94-1.93-3,0-.25,8.42-1.55,17-5.83,24.44a30.33,30.33,0,0,1-7.09,8.45,12.8,12.8,0,0,1-5.12,2.83,6.92,6.92,0,0,1-4.91-1c-4-2.37-5.09-7.23-5.09-11.56a1.5,1.5,0,0,0-3,0Z"/>
<path class="cls-1" d="M207.38,512.43a250.13,250.13,0,0,1,21-24.78q5.67-5.86,11.71-11.36c3.86-3.51,7.79-7.37,12.28-10.06,4-2.37,8.83-3,12.1.84,2.94,3.49,3.09,8.27,1.78,12.45-1.54,4.89-4.7,9.2-7.63,13.34s-6.13,8.33-9.13,12.54c-6,8.44-11.2,17.29-13.79,27.4-1.42,5.56-2.29,11.24-3.62,16.82a78.94,78.94,0,0,1-4.85,14.27,101.52,101.52,0,0,1-16.26,24.67,145.66,145.66,0,0,1-10.35,10.59c-3.73,3.45-7.73,6.61-11.31,10.22a36.12,36.12,0,0,0-8.34,12.54,39.44,39.44,0,0,0-2.41,14.68c.18,10.54,4.1,20.55,9.09,29.69,1.28,2.36,2.65,4.68,4,7,1,1.65,3.6.14,2.59-1.51-5.66-9.29-10.95-19.28-12.37-30.22-1.34-10.27,1-20.71,8-28.49,3.54-3.89,7.69-7.14,11.57-10.66a143.73,143.73,0,0,0,10.74-10.78,105.85,105.85,0,0,0,16.95-24.91,81.83,81.83,0,0,0,5.24-14.21c1.48-5.63,2.35-11.39,3.68-17.05a64.82,64.82,0,0,1,5.62-15.33,115.53,115.53,0,0,1,8.32-13.18c3-4.27,6.22-8.44,9.25-12.72s6.12-8.67,7.75-13.68a16.65,16.65,0,0,0-.92-13.35,11,11,0,0,0-10.78-5.89c-5.25.58-9.5,4.28-13.36,7.57q-6.3,5.37-12.24,11.14a248.94,248.94,0,0,0-22.12,24.58c-1.64,2.09-3.26,4.21-4.84,6.35-1.15,1.55,1.45,3.05,2.59,1.51Z"/>
<path class="cls-1" d="M416.79,570.68c-11-11.26-25.59-17.84-40.66-21.74-16.22-4.19-33-5.6-49.62-7.33l-34.21-3.56c-1.92-.2-1.91,2.8,0,3,18.76,2,37.57,3.63,56.29,6,15.35,1.91,31,4.67,45.13,11.24a71,71,0,0,1,20.94,14.55c1.36,1.39,3.48-.73,2.13-2.12Z"/></g></g></svg>