<svg xmlns="http://www.w3.org/2000/svg" viewBox="0 0 1282.14 326.78"><g id="Layer_2" data-name="Layer 2"><g id="Layer_1-2" data-name="Layer 1"><path d="M442.8,39.774c13.578,0,22.35-7.21,22.35-19.106,0-11.776-8.772-18.986-22.35-18.986-13.819,0-22.471,7.21-22.471,18.986C420.327,32.564,428.979,39.774,442.8,39.774Z" style="fill:#6d2424"/><path d="M767.118,39.774c13.578,0,22.35-7.21,22.35-19.106,0-11.776-8.772-18.986-22.35-18.986-13.819,0-22.471,7.21-22.471,18.986C744.647,32.564,753.3,39.774,767.118,39.774Z" style="fill:#6d2424"/><path d="M704.513,89.882c0,5.287-1.2,11.776-3.845,19.587l-6.38,17.664h5.245L712.2,91.444c5.047-14.66,10.7-19.586,16.823-21.148V65.128c-4.206.721-12.256.962-18.866.962-6.488,0-16.1-.241-23.672-.962V70.3C697.543,71.016,704.513,77.145,704.513,89.882Z" style="fill:#6d2424"/><path d="M616.313,84.114,633.6,127.133h37.6l-16.435-43.5a20.092,20.092,0,0,1-1.2-6.249c0-7.21,7.089-7.089,15.381-7.089V65.128c-9.854.842-21.87,1.322-31.964,1.322-13.7,0-24.513-.48-34.967-1.322V70.3C605.5,70.3,611.146,71.5,616.313,84.114Z" style="fill:#6d2424"/><path d="M751.016,92.045v35.088h35.448V62.485c-10.334,2.4-22.23,3.485-35.929,3.485-4.926,0-10.093-.361-15.26-.842V70.3C747.171,70.3,751.016,77.265,751.016,92.045Z" style="fill:#6d2424"/><path d="M981.7,127.133h29.634c-2.515-5.445-3.89-13.85-3.89-26.2,0-26.316,6.248-34.727,16.462-34.727s16.463,8.411,16.463,34.727c0,12.346-1.376,20.751-3.891,26.2h29.71c6.77-6.29,10.71-14.949,10.71-26.2,0-20.187-12.5-31.963-31.362-36.77-.121-1.322-.121-2.643-.121-3.965a35.875,35.875,0,0,1,.121-3.6c.721-5.407,1.922-9.613,3.6-12.5,3.125,8.652,7.931,13.819,18.385,13.819,9.614,0,16.823-6.008,16.823-14.3,0-9.252-7.45-15.02-17.9-15.02-14.66,0-21.75,9.853-23.312,22.711a45.6,45.6,0,0,0-.841,12.136,98.645,98.645,0,0,0-18.385-1.682c-30.281,0-52.871,12.016-52.871,39.173C971.035,112.18,974.944,120.846,981.7,127.133Z" style="fill:#6d2424"/><path d="M828.641,92.045v35.088h35.448V101.057c0-16.222,10.575-28.478,24.394-28.478,12.256,0,15.14,8.291,15.14,20.547v34.007h35.448V103.34c0-16.7-2.283-25.715-7.69-31.963-5.047-5.768-13.1-9.613-27.157-9.613-17.3,0-31.964,6.248-40.135,22.951V62.485c-10.333,2.4-22.23,3.485-35.928,3.485-4.927,0-10.094-.361-15.261-.842V70.3C824.8,70.3,828.641,77.265,828.641,92.045Z" style="fill:#6d2424"/><path d="M179.28,126.051c0-33.4,10.695-58.279,31.122-58.279,6.489,0,12.257,2.524,14.78,5.888-8.772,2.4-16.222,9.853-16.222,20.187,0,11.055,7.33,18.265,18.986,18.265,11.3,0,19.467-8.171,19.467-19.827,0-9.733-5.288-17.9-13.579-22.951-7.089-4.446-18.145-7.57-30.882-7.57-34.21,0-59.832,22.482-60.758,65.369h37.1C179.292,126.769,179.28,126.42,179.28,126.051Z" style="fill:#6d2424"/><path d="M529.315,116.438h68.853c0-38.572-17.543-54.674-46.262-54.674-34.189,0-59.058,21.724-60.15,65.369h37.086C528.861,123.472,528.984,119.753,529.315,116.438Zm21.149-49.387c12.016,0,17.183,20.668,16.7,44.7H528.594C530.637,79.908,539.409,67.051,550.464,67.051Z" style="fill:#6d2424"/><path d="M6.125,126.532H59.6l.22.6h42.171L59.6,17.784c-2.644.24-5.648.361-8.532.361-3,0-5.888-.121-8.532-.361L0,127.133H5.892ZM33.4,55.4,57.8,121.605H7.927Z" style="fill:#6d2424"/><path d="M426.7,92.045v35.088h35.448V62.485c-10.334,2.4-22.23,3.485-35.929,3.485-4.926,0-10.093-.361-15.261-.842V70.3C422.851,70.3,426.7,77.265,426.7,92.045Z" style="fill:#6d2424"/><path d="M275.651,29.44v97.693h35.328V101.057c0-16.7,10.935-28.478,24.513-28.478,12.257,0,15.141,8.291,15.141,20.547v34.007h35.448V103.34c0-16.7-2.283-25.715-7.691-31.963-5.047-5.768-13.1-9.613-27.157-9.613-17.3,0-32.083,6.128-40.254,22.831V0c-10.214,2.4-22.11,3.365-35.929,3.365-4.807,0-9.973-.241-15.141-.721V7.811C271.806,7.811,275.651,14.78,275.651,29.44Z" style="fill:#6d2424"/><path d="M110.28,173.777c0,12.168-7.59,20.722-19.155,20.722s-18.433-6.265-18.433-15.9c0-9.035,4.7-14.939,10.843-19.035a9.208,9.208,0,0,0-3.253-.6,12.545,12.545,0,0,0-3.494.6C63.656,161.73,54.38,178.114,54.38,191.367v65.3c0,15.9,7.59,20.24,23.131,20.24v5.18c-7.59-.241-23.613-.964-39.154-.964-13.494,0-28.553.723-35.3.964V276.9c11.446,0,15.783-3.976,15.783-17.71V181.367c0-14.818-3.856-21.806-15.783-21.806v-5.18c5.181.482,10.361.843,15.3.843,13.734,0,25.661-1.084,36.022-3.494v23.011c5.9-13.252,17.83-23.733,33.371-23.733C103.775,151.008,110.28,162.694,110.28,173.777Z" style="fill:#fff"/><path d="M219.671,245.46l4.458,1.687c-5.9,18.553-22.047,38.431-49.395,38.431-33.251,0-56.864-20.963-56.864-66.02,0-45.781,25.3-68.55,60.358-68.55,28.794,0,46.383,16.143,46.383,54.816H155.579c-.362,3.614-.482,7.71-.482,11.686,0,34.335,16.5,47.708,32.167,47.708C197.143,265.218,209.672,261.844,219.671,245.46Zm-64.815-44.335h38.672c.482-24.095-4.7-44.817-16.746-44.817C165.7,156.308,156.9,169.2,154.856,201.125Z" style="fill:#fff"/><path d="M334.123,162.091c7.228,7.47,8.794,17.349,8.794,34.577v67.1c0,7.951,1.326,10.963,5.3,10.963,3.494,0,6.265-2.048,9.036-4.216l2.53,4.216c-7.47,6.024-15.662,9.036-28.191,9.036-18.072,0-23.613-9.4-23.734-20-8.433,13.855-22.529,20-36.383,20-18.433,0-31.2-10.12-31.2-28.071,0-17.83,11.806-27.829,34.7-36.263,18.192-6.867,32.408-11.565,32.408-22.167V177.994c0-12.891-5.542-22.047-20.119-22.047-5.9,0-13.132,1.687-17.589,6.024,8.794,3.012,14.577,9.4,14.577,19.4,0,10.241-7.951,17.71-20.119,17.71-10.723,0-17.469-8.192-17.469-19.035,0-9.036,5.783-15.9,13.854-20.6,8.8-4.94,20.843-8.433,37.468-8.433C313.883,151.008,326.171,153.9,334.123,162.091Zm-26.746,45.3c-2.289,3.735-6.987,6.987-15.3,12.168-8.674,6.385-16.746,14.457-16.746,29.275,0,13.614,6.626,19.156,15.421,19.156,6.023,0,11.445-2.651,16.625-10Z" style="fill:#fff"/><path d="M417.009,259.194c0,13.734,4.338,17.71,15.783,17.71v5.18c-6.265-.241-20.12-.964-32.89-.964-12.891,0-27.589.723-34.215.964V276.9c11.566,0,15.782-3.976,15.782-17.71V118.6c0-14.819-3.855-21.806-15.782-21.806V91.613c5.181.482,10.361.723,15.3.723,13.735,0,25.782-.964,36.022-3.373Z" style="fill:#fff"/><path d="M552.544,259.194c0,13.734,4.216,17.71,15.782,17.71v5.18c-6.265-.241-20.119-.964-33.01-.964-12.771,0-27.589.723-34.1.964V276.9c11.446,0,15.783-3.976,15.783-17.71V181.367c0-14.818-3.856-21.806-15.783-21.806v-5.18c5.181.482,10.361.843,15.3.843,13.734,0,25.661-1.084,36.022-3.494Zm3.012-149.389c0,11.927-8.8,19.156-22.409,19.156-13.854,0-22.529-7.229-22.529-19.156,0-11.806,8.675-19.035,22.529-19.035C546.761,90.77,555.556,98,555.556,109.805Z" style="fill:#fff"/><path d="M777.35,259.194c0,13.734,4.337,17.71,15.782,17.71v5.18c-6.264-.241-20.481-.964-32.528-.964s-24.818.723-30.6.964V276.9c8.675,0,11.807-3.976,11.807-17.71V182.452c0-12.289-2.41-20.6-14.7-20.6-12.048,0-22.167,11.325-24.095,25.782l.12,5.06v66.5c0,13.734,3.615,17.71,14.216,17.71v5.18c-5.9-.241-19.637-.964-31.082-.964-12.048,0-24.818.723-30.6.964V276.9c8.674,0,11.927-3.976,11.927-17.71V182.452c0-12.289-2.048-20.6-13.252-20.6-13.252,0-23.974,12.289-23.974,28.553v68.791c0,13.734,3.011,17.71,11.806,17.71v5.18c-5.542-.241-17.71-.964-29.155-.964-12.65,0-27.468.723-33.974.964V276.9c11.445,0,15.782-3.976,15.782-17.71V181.367c0-14.818-3.855-21.806-15.782-21.806v-5.18c5.181.482,10.361.843,15.3.843,13.734,0,25.661-1.084,36.022-3.494v22.288c7.71-16.384,21.926-23.01,38.19-23.01,13.614,0,21.927,3.855,26.987,9.638,3.132,3.614,5.18,8.312,6.264,14.7,9.036-18.794,24.336-24.335,40.962-24.335,13.734,0,21.926,3.855,26.986,9.638,5.542,6.264,7.59,15.782,7.59,32.046Z" style="fill:#fff"/><path d="M934.811,212.57c0,47.949-22.529,73.008-57.105,73.008-10.12,0-19.156-2.771-25.3-7.951v24.7c0,15.3,8.313,19.276,22.167,19.276v5.18c-8.312-.24-24.7-1.084-41.443-1.084-12.048,0-24.938.844-31.083,1.084V321.6c10.843,0,14.819-3.735,14.819-16.866V181.488c0-14.819-3.855-21.686-15.782-21.686v-5.18c5.18.482,10.36.723,15.3.723,13.734,0,25.782-.964,36.022-3.494v23.131c6.867-15.662,20.842-23.974,38.311-23.974C915.776,151.008,934.811,171.488,934.811,212.57Zm-37.227,4.819c0-41.925-8.433-55.78-21.324-55.78-10.843,0-20.842,7.831-23.854,21.806v88.79c3.614,4.217,9.036,6.626,15.662,6.626C889.994,278.831,897.584,255.339,897.584,217.389Z" style="fill:#fff"/><path d="M1045.166,162.091c7.228,7.47,8.8,17.349,8.8,34.577v67.1c0,7.951,1.325,10.963,5.3,10.963,3.494,0,6.265-2.048,9.036-4.216l2.53,4.216c-7.469,6.024-15.662,9.036-28.191,9.036-18.071,0-23.613-9.4-23.734-20-8.433,13.855-22.529,20-36.383,20-18.433,0-31.2-10.12-31.2-28.071,0-17.83,11.806-27.829,34.7-36.263,18.191-6.867,32.407-11.565,32.407-22.167V177.994c0-12.891-5.541-22.047-20.119-22.047-5.9,0-13.132,1.687-17.589,6.024,8.794,3.012,14.577,9.4,14.577,19.4,0,10.241-7.951,17.71-20.119,17.71-10.722,0-17.469-8.192-17.469-19.035,0-9.036,5.783-15.9,13.855-20.6,8.794-4.94,20.842-8.433,37.467-8.433C1024.926,151.008,1037.214,153.9,1045.166,162.091Zm-26.746,45.3c-2.289,3.735-6.987,6.987-15.3,12.168-8.674,6.385-16.746,14.457-16.746,29.275,0,13.614,6.626,19.156,15.421,19.156,6.024,0,11.445-2.651,16.625-10Z" style="fill:#fff"/><path d="M1172.869,158.6c8.313,5.06,13.614,13.253,13.614,23.011,0,11.686-8.192,19.879-19.517,19.879-11.686,0-19.035-7.229-19.035-18.313,0-10.36,7.469-17.83,16.264-20.239-2.53-3.374-8.313-5.9-14.818-5.9-20.481,0-31.2,24.939-31.2,58.431,0,38.311,16.384,49.756,32.648,49.756,9.156,0,22.288-3.614,32.288-20.12l4.337,1.567c-5.663,18.432-20.842,38.913-49.034,38.913-32.166,0-57.466-20.36-57.466-66.623,0-44.575,26.022-67.947,60.96-67.947C1154.678,151.008,1165.761,154.14,1172.869,158.6Z" style="fill:#fff"/><path d="M1279.49,154.622v4.939h-29.155v99.513c0,10.119,3.614,13.734,10.842,13.734,6.024,0,12.048-3.855,16.867-14.819l4.1,2.289c-5.421,14.7-15.541,25.3-33.733,25.3-11.084,0-19.155-2.771-24.7-8.313-7.108-7.228-8.915-17.228-8.915-34.456V159.561h-20.722v-4.939H1214.8V121.973c13.854-.12,25.3-2.409,35.54-7.951v40.6Z" style="fill:#fff"/></g></g></svg>