<svg xmlns="http://www.w3.org/2000/svg" viewBox="0 0 1282.14 326.78"><defs><style>.cls-1{fill:#6d2424;}.cls-2{fill:#fff;}</style></defs><g id="Layer_2" data-name="Layer 2"><g id="Layer_1-2" data-name="Layer 1"><path class="cls-1" d="M442.8,39.77c13.58,0,22.35-7.21,22.35-19.1s-8.77-19-22.35-19c-13.82,0-22.47,7.21-22.47,19S429,39.77,442.8,39.77Z"/><path class="cls-1" d="M767.12,39.77c13.58,0,22.35-7.21,22.35-19.1s-8.77-19-22.35-19c-13.82,0-22.47,7.21-22.47,19S753.3,39.77,767.12,39.77Z"/><path class="cls-1" d="M704.51,89.88c0,5.29-1.2,11.78-3.84,19.59l-6.38,17.66h5.24L712.2,91.44c5-14.66,10.7-19.58,16.83-21.14V65.13c-4.21.72-12.26,1-18.87,1s-16.1-.24-23.67-1V70.3C697.54,71,704.51,77.14,704.51,89.88Z"/><path class="cls-1" d="M616.31,84.11l17.29,43h37.6l-16.43-43.5a19.82,19.82,0,0,1-1.21-6.24c0-7.21,7.09-7.09,15.38-7.09V65.13c-9.85.84-21.87,1.32-32,1.32-13.7,0-24.51-.48-35-1.32V70.3C605.5,70.3,611.15,71.5,616.31,84.11Z"/><path class="cls-1" d="M751,92.05v35.08h35.44V62.48C776.13,64.89,764.23,66,750.54,66c-4.93,0-10.1-.36-15.27-.84V70.3C747.17,70.3,751,77.26,751,92.05Z"/><path class="cls-1" d="M981.7,127.13h29.63c-2.51-5.44-3.89-13.85-3.89-26.19,0-26.32,6.25-34.73,16.47-34.73s16.46,8.41,16.46,34.73c0,12.34-1.38,20.75-3.89,26.19h29.71c6.77-6.29,10.71-14.95,10.71-26.19,0-20.19-12.5-32-31.36-36.77-.12-1.32-.12-2.65-.12-4s0-2.4.12-3.6c.72-5.41,1.92-9.62,3.6-12.5,3.12,8.65,7.93,13.82,18.39,13.82,9.61,0,16.82-6,16.82-14.3,0-9.25-7.45-15-17.91-15-14.66,0-21.75,9.85-23.31,22.71a45.67,45.67,0,0,0-.84,12.14,97.83,97.83,0,0,0-18.38-1.69c-30.28,0-52.88,12-52.88,39.18C971,112.18,974.94,120.85,981.7,127.13Z"/><path class="cls-1" d="M828.64,92.05v35.08h35.45V101.06c0-16.22,10.57-28.48,24.39-28.48,12.26,0,15.14,8.29,15.14,20.55v34h35.45V103.34c0-16.7-2.28-25.71-7.69-32-5-5.77-13.1-9.62-27.16-9.62-17.3,0-32,6.25-40.13,23V62.48C853.76,64.89,841.86,66,828.16,66c-4.93,0-10.09-.36-15.26-.84V70.3C824.8,70.3,828.64,77.26,828.64,92.05Z"/><path class="cls-1" d="M179.28,126.05c0-33.4,10.69-58.28,31.12-58.28,6.49,0,12.26,2.53,14.78,5.89C216.41,76.06,209,83.51,209,93.85c0,11.05,7.33,18.26,19,18.26,11.29,0,19.46-8.17,19.46-19.82,0-9.74-5.28-17.91-13.58-23-7.09-4.44-18.14-7.57-30.88-7.57-34.21,0-59.83,22.49-60.76,65.37h37.1C179.29,126.77,179.28,126.42,179.28,126.05Z"/><path class="cls-1" d="M529.32,116.44h68.85c0-38.57-17.55-54.68-46.26-54.68-34.19,0-59.06,21.73-60.15,65.37h37.08C528.86,123.47,529,119.75,529.32,116.44Zm21.14-49.39c12,0,17.19,20.67,16.71,44.7H528.59C530.64,79.91,539.41,67.05,550.46,67.05Z"/><path class="cls-1" d="M6.12,126.53H59.6l.22.6H102L59.6,17.78c-2.65.24-5.65.36-8.53.36s-5.89-.12-8.54-.36L0,127.13H5.89ZM33.4,55.4l24.4,66.21H7.93Z"/><path class="cls-1" d="M426.7,92.05v35.08h35.44V62.48C451.81,64.89,439.91,66,426.22,66c-4.93,0-10.1-.36-15.27-.84V70.3C422.85,70.3,426.7,77.26,426.7,92.05Z"/><path class="cls-1" d="M275.65,29.44v97.69H311V101.06c0-16.71,10.93-28.48,24.51-28.48,12.26,0,15.14,8.29,15.14,20.55v34h35.45V103.34c0-16.7-2.28-25.71-7.69-32-5.05-5.77-13.1-9.62-27.16-9.62-17.3,0-32.08,6.13-40.25,22.83V0c-10.22,2.4-22.11,3.36-35.93,3.36-4.81,0-10-.24-15.14-.72V7.81C271.81,7.81,275.65,14.78,275.65,29.44Z"/><path class="cls-2" d="M110.28,173.78c0,12.17-7.59,20.72-19.16,20.72s-18.43-6.27-18.43-15.9c0-9,4.7-14.94,10.84-19a9.18,9.18,0,0,0-3.25-.6,12.54,12.54,0,0,0-3.49.6c-13.13,2.17-22.41,18.55-22.41,31.81v65.29c0,15.91,7.59,20.24,23.13,20.24v5.18c-7.59-.24-23.61-1-39.15-1-13.5,0-28.56.72-35.3,1V276.9c11.44,0,15.78-4,15.78-17.71V181.37c0-14.82-3.86-21.81-15.78-21.81v-5.18c5.18.48,10.36.84,15.3.84,13.73,0,25.66-1.08,36-3.49v23C60.28,161.49,72.21,151,87.75,151,103.77,151,110.28,162.69,110.28,173.78Z"/><path class="cls-2" d="M219.67,245.46l4.46,1.69c-5.9,18.55-22,38.43-49.4,38.43-33.25,0-56.86-21-56.86-66,0-45.78,25.3-68.55,60.36-68.55,28.79,0,46.38,16.14,46.38,54.81h-69c-.36,3.62-.48,7.71-.48,11.69,0,34.34,16.5,47.71,32.16,47.71C197.14,265.22,209.67,261.84,219.67,245.46Zm-64.81-44.33h38.67c.48-24.1-4.7-44.82-16.75-44.82C165.7,156.31,156.9,169.2,154.86,201.13Z"/><path class="cls-2" d="M334.12,162.09c7.23,7.47,8.8,17.35,8.8,34.58v67.1c0,8,1.32,11,5.3,11,3.49,0,6.26-2.05,9-4.22l2.53,4.22c-7.47,6-15.66,9-28.19,9-18.07,0-23.61-9.4-23.73-20-8.43,13.86-22.53,20-36.38,20-18.44,0-31.21-10.12-31.21-28.07s11.81-27.83,34.7-36.26c18.19-6.87,32.41-11.57,32.41-22.17V178c0-12.89-5.54-22-20.12-22-5.91,0-13.13,1.68-17.59,6,8.79,3,14.58,9.4,14.58,19.4,0,10.24-8,17.71-20.12,17.71-10.73,0-17.47-8.2-17.47-19,0-9,5.78-15.9,13.85-20.6,8.8-4.94,20.84-8.43,37.47-8.43C313.88,151,326.17,153.9,334.12,162.09Zm-26.74,45.3c-2.29,3.73-7,7-15.3,12.17-8.68,6.38-16.75,14.45-16.75,29.27,0,13.62,6.63,19.16,15.42,19.16,6,0,11.45-2.65,16.63-10Z"/><path class="cls-2" d="M417,259.19c0,13.74,4.34,17.71,15.78,17.71v5.18c-6.26-.24-20.12-1-32.89-1s-27.59.72-34.21,1V276.9c11.56,0,15.78-4,15.78-17.71V118.6c0-14.82-3.86-21.81-15.78-21.81V91.61c5.18.49,10.36.73,15.3.73,13.73,0,25.78-1,36-3.38Z"/><path class="cls-2" d="M552.54,259.19c0,13.74,4.22,17.71,15.79,17.71v5.18c-6.27-.24-20.12-1-33-1s-27.59.72-34.1,1V276.9c11.45,0,15.78-4,15.78-17.71V181.37c0-14.82-3.85-21.81-15.78-21.81v-5.18c5.18.48,10.36.84,15.3.84,13.74,0,25.66-1.08,36-3.49Zm3-149.38c0,11.92-8.8,19.15-22.41,19.15-13.86,0-22.53-7.23-22.53-19.15s8.67-19,22.53-19C546.76,90.77,555.56,98,555.56,109.81Z"/><path class="cls-2" d="M777.35,259.19c0,13.74,4.34,17.71,15.78,17.71v5.18c-6.26-.24-20.48-1-32.53-1s-24.81.72-30.6,1V276.9c8.68,0,11.81-4,11.81-17.71V182.45c0-12.29-2.41-20.6-14.7-20.6-12.05,0-22.17,11.32-24.09,25.78l.12,5.06v66.5c0,13.74,3.61,17.71,14.21,17.71v5.18c-5.9-.24-19.63-1-31.08-1-12,0-24.82.72-30.6,1V276.9c8.67,0,11.93-4,11.93-17.71V182.45c0-12.29-2.05-20.6-13.25-20.6-13.26,0-24,12.29-24,28.55v68.79c0,13.74,3,17.71,11.81,17.71v5.18c-5.54-.24-17.71-1-29.16-1-12.65,0-27.47.72-34,1V276.9c11.44,0,15.78-4,15.78-17.71V181.37c0-14.82-3.85-21.81-15.78-21.81v-5.18c5.18.48,10.36.84,15.3.84,13.73,0,25.66-1.08,36-3.49V174c7.71-16.39,21.93-23,38.19-23,13.61,0,21.93,3.85,27,9.64,3.13,3.61,5.18,8.31,6.26,14.69,9-18.79,24.34-24.33,41-24.33,13.74,0,21.93,3.85,27,9.64,5.54,6.26,7.59,15.78,7.59,32Z"/><path class="cls-2" d="M934.81,212.57c0,47.95-22.53,73-57.1,73-10.12,0-19.16-2.77-25.3-7.95v24.69c0,15.3,8.31,19.28,22.16,19.28v5.18c-8.31-.24-24.69-1.08-41.44-1.08-12,0-24.94.84-31.08,1.08V321.6c10.84,0,14.82-3.73,14.82-16.87V181.49c0-14.82-3.86-21.69-15.79-21.69v-5.18c5.18.48,10.36.72,15.3.72,13.74,0,25.79-1,36-3.49V175c6.86-15.66,20.84-24,38.31-24C915.78,151,934.81,171.49,934.81,212.57Zm-37.23,4.82c0-41.93-8.43-55.78-21.32-55.78-10.84,0-20.84,7.83-23.85,21.81v88.79c3.61,4.21,9,6.62,15.66,6.62C890,278.83,897.58,255.34,897.58,217.39Z"/><path class="cls-2" d="M1045.17,162.09c7.22,7.47,8.79,17.35,8.79,34.58v67.1c0,8,1.33,11,5.3,11,3.5,0,6.27-2.05,9-4.22l2.53,4.22c-7.47,6-15.66,9-28.19,9-18.08,0-23.62-9.4-23.74-20-8.43,13.86-22.53,20-36.38,20-18.43,0-31.2-10.12-31.2-28.07s11.8-27.83,34.69-36.26c18.19-6.87,32.41-11.57,32.41-22.17V178c0-12.89-5.54-22-20.12-22-5.9,0-13.13,1.68-17.59,6,8.8,3,14.58,9.4,14.58,19.4,0,10.24-7.95,17.71-20.12,17.71-10.72,0-17.47-8.2-17.47-19,0-9,5.78-15.9,13.86-20.6C980.35,154.5,992.4,151,1009,151,1024.93,151,1037.21,153.9,1045.17,162.09Zm-26.75,45.3c-2.29,3.73-7,7-15.3,12.17-8.67,6.38-16.75,14.45-16.75,29.27,0,13.62,6.63,19.16,15.42,19.16,6,0,11.45-2.65,16.63-10Z"/><path class="cls-2" d="M1172.87,158.6c8.31,5.06,13.61,13.25,13.61,23,0,11.68-8.19,19.88-19.51,19.88-11.69,0-19-7.23-19-18.32,0-10.36,7.47-17.83,16.27-20.24-2.53-3.37-8.32-5.9-14.82-5.9-20.48,0-31.21,24.94-31.21,58.43,0,38.31,16.39,49.76,32.65,49.76,9.16,0,22.29-3.62,32.29-20.12l4.34,1.56c-5.67,18.44-20.85,38.92-49,38.92-32.16,0-57.46-20.36-57.46-66.62,0-44.58,26-68,61-68C1154.68,151,1165.76,154.14,1172.87,158.6Z"/><path class="cls-2" d="M1279.49,154.62v4.94h-29.16v99.51c0,10.12,3.62,13.74,10.85,13.74,6,0,12-3.86,16.86-14.82l4.1,2.29c-5.42,14.7-15.54,25.3-33.73,25.3-11.09,0-19.16-2.77-24.7-8.31-7.11-7.23-8.92-17.23-8.92-34.46V159.56h-20.72v-4.94h20.72V122c13.86-.12,25.3-2.41,35.54-8v40.6Z"/></g></g></svg>